<svg xmlns="http://www.w3.org/2000/svg" width="1280" height="320" viewBox="0 0 1280 320" role="img" aria-labelledby="t d">
  <title id="t">MultiTracker</title>
  <desc id="d">Several portfolio lines merge into one. Private-first portfolio tracker.</desc>
  <rect width="1280" height="320" fill="#f3f1e8"/>
  <g stroke="#394d45" stroke-opacity="0.09" stroke-width="1"><line x1="0" y1="80" x2="1280" y2="80"/><line x1="0" y1="160" x2="1280" y2="160"/><line x1="0" y1="240" x2="1280" y2="240"/></g>
  <g transform="translate(90 0)">
  <g fill="none" stroke-linecap="round" stroke-linejoin="round">
    <path d="M96 92 H150 C196 92 196 160 244 160 H300" stroke="#b85c00" stroke-width="10"/>
    <path d="M96 160 H300" stroke="#1673c8" stroke-width="10"/>
    <path d="M96 228 H150 C196 228 196 160 244 160" stroke="#1d7f6b" stroke-width="10"/>
    <path d="M300 160 H340 L372 124 L404 148 L440 96" stroke="#394d45" stroke-width="14"/>
  </g>
  <circle cx="440" cy="96" r="14" fill="#394d45"/>
  <circle cx="440" cy="96" r="5" fill="#f3f1e8"/>
  <g font-family="-apple-system, BlinkMacSystemFont, 'Segoe UI', Inter, Helvetica, Arial, sans-serif" fill="#2c3b35">
    <text x="520" y="168" font-size="88" font-weight="700" letter-spacing="-2">MultiTracker</text>
    <text x="524" y="214" font-size="30" font-weight="500" fill="#4b5f56">Private-first portfolio tracker</text>
  </g>
  <g font-family="-apple-system, BlinkMacSystemFont, 'Segoe UI', Inter, Helvetica, Arial, sans-serif">
    <rect x="524" y="240" width="470" height="40" rx="8" fill="#394d45"/>
    <text x="544" y="267" font-size="20" font-weight="600" fill="#f3f1e8">Clickable static prototype · fictional data only</text>
  </g>
  </g>
</svg>
